<?xml version="1.0" standalone="no"?><!DOCTYPE svg PUBLIC "-//W3C//DTD SVG 1.1//EN" "http://www.w3.org/Graphics/SVG/1.1/DTD/svg11.dtd"><svg t="1595517264220" class="icon" viewBox="0 0 1024 1024" version="1.1" xmlns="http://www.w3.org/2000/svg" p-id="5696" xmlns:xlink="http://www.w3.org/1999/xlink" width="200" height="200"><defs><style type="text/css"></style></defs><path d="M36.571246 1023.99488a39.277518 39.277518 0 0 1-25.8193-9.362239A30.280991 30.280991 0 0 1 0 991.812184v-228.350858C0 745.833985 16.383918 731.424914 36.571246 731.424914s36.571246 14.409071 36.571245 32.182697v228.277715a30.280991 30.280991 0 0 1-10.678803 22.674173A39.277518 39.277518 0 0 1 36.571246 1023.99488z m292.569965 0a42.495788 42.495788 0 0 1-25.819299-8.265102 25.599872 25.599872 0 0 1-10.751946-20.041042V686.66171C292.569966 671.009216 308.953884 658.282423 329.141211 658.282423s36.571246 12.726794 36.571246 28.379287v309.027026c0 15.652493-16.383918 28.306144-36.571246 28.306144z m292.569966 0a39.277518 39.277518 0 0 1-25.819299-9.362239 30.280991 30.280991 0 0 1-10.751947-22.674172V543.668139c0.29257-17.554198 16.530203-31.743841 36.571246-31.743841s36.278676 14.116501 36.571246 31.743841v448.144045a30.280991 30.280991 0 0 1-10.751946 22.674172A39.277518 39.277518 0 0 1 621.711177 1023.99488z m365.712457 0a38.911805 38.911805 0 0 1-25.819299-9.508524 30.939274 30.939274 0 0 1-10.751946-23.113027V398.334008c0-17.993053 16.383918-32.621551 36.571245-32.621551s36.571246 14.628498 36.571246 32.621551v593.039321a30.939274 30.939274 0 0 1-10.751946 23.113027 38.911805 38.911805 0 0 1-25.8193 9.508524zM974.038558 20.479898h-191.633327a35.839821 35.839821 0 0 0-31.451271 18.285622 37.741526 37.741526 0 0 0 0 37.156386c6.436539 11.556514 18.50505 18.50505 31.451271 18.285623h117.905696L555.882935 391.970612l-126.53651-139.409589a58.075138 58.075138 0 0 0-81.919591-4.827405L12.726794 540.669297a37.302671 37.302671 0 0 0-3.876553 52.004311 35.839821 35.839821 0 0 0 51.053459 4.022837l325.118375-284.524292 126.53651 139.409589a58.148281 58.148281 0 0 0 81.553878 5.046832l358.471351-309.831594v117.027987a36.717531 36.717531 0 0 0 36.278675 36.71753 36.717531 36.717531 0 0 0 36.205534-36.71753V71.313929a50.468319 50.468319 0 0 0-49.956322-50.907174z" p-id="5697"></path></svg>