<?xml version="1.0" standalone="no"?><!DOCTYPE svg PUBLIC "-//W3C//DTD SVG 1.1//EN" "http://www.w3.org/Graphics/SVG/1.1/DTD/svg11.dtd"><svg t="1595517193688" class="icon" viewBox="0 0 1024 1024" version="1.1" xmlns="http://www.w3.org/2000/svg" p-id="3678" xmlns:xlink="http://www.w3.org/1999/xlink" width="200" height="200"><defs><style type="text/css"></style></defs><path d="M443.264 214.741333a117.205333 117.205333 0 0 1 103.68-32.469333l167.125333 30.122667a78.122667 78.122667 0 0 1 63.018667 63.018666l30.165333 167.168a117.205333 117.205333 0 0 1-32.469333 103.68l-283.605333 283.562667a117.205333 117.205333 0 0 1-165.76 0l-165.76-165.76a117.205333 117.205333 0 0 1 0-165.76l283.605333-283.562667z m27.605333 27.605334L187.306667 525.909333a78.165333 78.165333 0 0 0-3.968 106.24l3.968 4.266667 165.76 165.76c29.141333 29.141333 75.52 30.464 106.24 3.968l4.266666-3.968 283.562667-283.562667c16.597333-16.597333 24.746667-39.68 22.528-62.805333l-0.853333-6.314667-30.165334-167.125333a39.082667 39.082667 0 0 0-26.282666-30.208l-5.248-1.28-167.125334-30.165333a78.122667 78.122667 0 0 0-64.426666 17.322666l-4.693334 4.309334z m130.816 90.197333a39.082667 39.082667 0 1 1 55.253334 55.253333 39.082667 39.082667 0 0 1-55.253334-55.253333z" fill="#444444" p-id="3679"></path></svg>