<?xml version="1.0" standalone="no"?><!DOCTYPE svg PUBLIC "-//W3C//DTD SVG 1.1//EN" "http://www.w3.org/Graphics/SVG/1.1/DTD/svg11.dtd"><svg t="1595517321629" class="icon" viewBox="0 0 1024 1024" version="1.1" xmlns="http://www.w3.org/2000/svg" p-id="7203" xmlns:xlink="http://www.w3.org/1999/xlink" width="200" height="200"><defs><style type="text/css"></style></defs><path d="M512 874.666667c-200.533333 0-362.666667-162.133333-362.666667-362.666667S311.466667 149.333333 512 149.333333s362.666667 162.133333 362.666667 362.666667-162.133333 362.666667-362.666667 362.666667M512 85.333333C277.333333 85.333333 85.333333 277.333333 85.333333 512s192 426.666667 426.666667 426.666667 426.666667-192 426.666667-426.666667S746.666667 85.333333 512 85.333333" p-id="7204"></path><path d="M674.133333 298.666667h-72.533333c-59.733333 102.4-89.6 157.866667-93.866667 166.4-17.066667-29.866667-51.2-81.066667-93.866666-166.4H341.333333l110.933334 183.466666H358.4v55.466667H469.333333v38.4H358.4v55.466667H469.333333V725.333333h72.533334v-93.866666H640v-55.466667h-93.866667v-38.4H640v-55.466667h-72.533333L674.133333 298.666667z" p-id="7205"></path></svg>